{
	"asset":{
		"generator":"Khronos glTF Blender I/O v3.5.30",
		"version":"2.0"
	},
	"extensionsUsed":[
		"KHR_materials_specular",
		"KHR_materials_ior"
	],
	"scene":0,
	"scenes":[
		{
			"name":"Scene",
			"nodes":[
				0,
				12
			]
		}
	],
	"nodes":[
		{
			"name":"Empty.010",
			"rotation":[
				-0.06454650312662125,
				-0.9628148078918457,
				-0.08304254710674286,
				0.2488480657339096
			],
			"scale":[
				0.703453004360199,
				0.703453004360199,
				0.7034529447555542
			],
			"translation":[
				0.8401970863342285,
				-0.24034690856933594,
				-1.5006215572357178
			]
		},
		{
			"name":"Bone.009",
			"rotation":[
				0.022698108106851578,
				3.7410277376999715e-15,
				-3.427321093596447e-09,
				0.999742329120636
			],
			"translation":[
				-1.6653345369377348e-14,
				1.2151061296463013,
				-1.9557786501422925e-08
			]
		},
		{
			"children":[
				1
			],
			"name":"Bone.008",
			"rotation":[
				-0.0005884655984118581,
				-1.0600899396859004e-14,
				8.885078089937437e-11,
				0.9999998807907104
			],
			"scale":[
				1,
				0.9999999403953552,
				0.9999999403953552
			],
			"translation":[
				6.428191312579656e-14,
				1.2894707918167114,
				7.450567274247533e-09
			]
		},
		{
			"children":[
				2
			],
			"name":"Bone.007",
			"rotation":[
				-0.009614049457013607,
				7.037231464468137e-15,
				1.451686659770246e-09,
				0.9999538064002991
			],
			"scale":[
				1,
				1.0000001192092896,
				1
			],
			"translation":[
				-1.4804902638033968e-14,
				1.1652684211730957,
				-1.3197776205231548e-14
			]
		},
		{
			"children":[
				3
			],
			"name":"Bone.006",
			"rotation":[
				5.5510022956902305e-17,
				-3.552713678800501e-14,
				-1.0658142730467397e-14,
				1
			],
			"translation":[
				2.009304452422339e-15,
				0.942131519317627,
				-1.3197776205231548e-14
			]
		},
		{
			"children":[
				4
			],
			"name":"Bone.005",
			"rotation":[
				5.551178650596827e-17,
				1.4210854715202004e-14,
				3.5527141023169746e-15,
				1
			],
			"translation":[
				0,
				0.9986042976379395,
				-1.3197776205231548e-14
			]
		},
		{
			"children":[
				5
			],
			"name":"Bone.004",
			"rotation":[
				-5.010890918093966e-22,
				7.105427357601002e-15,
				-3.552713678800501e-15,
				1
			],
			"scale":[
				1,
				0.9999999403953552,
				1
			],
			"translation":[
				-1.0004096075849622e-14,
				1.222428798675537,
				-1.3197776205231548e-14
			]
		},
		{
			"children":[
				6
			],
			"name":"Bone.003",
			"rotation":[
				-0.00793575681746006,
				2.84529615580259e-14,
				1.1982762559981097e-09,
				0.9999685287475586
			],
			"scale":[
				1,
				0.9999999403953552,
				1
			],
			"translation":[
				1.2878587085651816e-14,
				1.084827184677124,
				-1.8626582498626476e-09
			]
		},
		{
			"children":[
				7
			],
			"name":"Bone.002",
			"rotation":[
				0.0008940521511249244,
				-3.912497360597164e-14,
				-1.3500441042868516e-10,
				0.9999995827674866
			],
			"translation":[
				-1.354472090042691e-14,
				1.2225501537322998,
				-9.313357862694716e-10
			]
		},
		{
			"children":[
				8
			],
			"name":"Bone.001",
			"rotation":[
				0.00704173045232892,
				-7.518820410723492e-08,
				4.317866952874283e-08,
				0.9999752044677734
			],
			"scale":[
				1,
				0.9999999403953552,
				0.9999999403953552
			],
			"translation":[
				0,
				1,
				0
			]
		},
		{
			"children":[
				9
			],
			"name":"Bone"
		},
		{
			"mesh":0,
			"name":"tentacule.007",
			"skin":0
		},
		{
			"children":[
				11,
				10
			],
			"name":"Armature",
			"rotation":[
				0,
				0,
				1,
				4.371138828673793e-08
			]
		}
	],
	"materials":[
		{
			"doubleSided":true,
			"extensions":{
				"KHR_materials_specular":{
					"specularColorFactor":[
						0.5461308184108079,
						0.5461308184108079,
						0.5461308184108079
					]
				},
				"KHR_materials_ior":{
					"ior":1.4500000476837158
				}
			},
			"name":"Squid material dark.001",
			"pbrMetallicRoughness":{
				"metallicFactor":0,
				"roughnessFactor":0.3333333134651184
			}
		}
	],
	"meshes":[
		{
			"name":"Cube.001",
			"primitives":[
				{
					"attributes":{
						"POSITION":0,
						"TEXCOORD_0":1,
						"NORMAL":2,
						"JOINTS_0":3,
						"WEIGHTS_0":4
					},
					"indices":5,
					"material":0
				}
			]
		}
	],
	"skins":[
		{
			"inverseBindMatrices":6,
			"joints":[
				10,
				9,
				8,
				7,
				6,
				5,
				4,
				3,
				2,
				1
			],
			"name":"Armature"
		}
	],
	"accessors":[
		{
			"bufferView":0,
			"componentType":5126,
			"count":1396,
			"max":[
				0.9407920837402344,
				0.7034531235694885,
				0.7034532427787781
			],
			"min":[
				-0.9270015954971313,
				-11.332432746887207,
				-0.6898732781410217
			],
			"type":"VEC3"
		},
		{
			"bufferView":1,
			"componentType":5126,
			"count":1396,
			"type":"VEC2"
		},
		{
			"bufferView":2,
			"componentType":5126,
			"count":1396,
			"type":"VEC3"
		},
		{
			"bufferView":3,
			"componentType":5121,
			"count":1396,
			"type":"VEC4"
		},
		{
			"bufferView":4,
			"componentType":5126,
			"count":1396,
			"type":"VEC4"
		},
		{
			"bufferView":5,
			"componentType":5123,
			"count":3492,
			"type":"SCALAR"
		},
		{
			"bufferView":6,
			"componentType":5126,
			"count":10,
			"type":"MAT4"
		}
	],
	"bufferViews":[
		{
			"buffer":0,
			"byteLength":16752,
			"byteOffset":0,
			"target":34962
		},
		{
			"buffer":0,
			"byteLength":11168,
			"byteOffset":16752,
			"target":34962
		},
		{
			"buffer":0,
			"byteLength":16752,
			"byteOffset":27920,
			"target":34962
		},
		{
			"buffer":0,
			"byteLength":5584,
			"byteOffset":44672,
			"target":34962
		},
		{
			"buffer":0,
			"byteLength":22336,
			"byteOffset":50256,
			"target":34962
		},
		{
			"buffer":0,
			"byteLength":6984,
			"byteOffset":72592,
			"target":34963
		},
		{
			"buffer":0,
			"byteLength":640,
			"byteOffset":79576
		}
	],
	"buffers":[
		{
			"byteLength":80216,
			"uri":"data:application/octet-stream;base64,"
		}
	]
}
